<mxfile host="65bd71144e">
    <diagram id="WIpfZsTKjsTTIBiBybuf" name="Page-1">
        <mxGraphModel dx="1066" dy="612" grid="1" gridSize="10" guides="1" tooltips="1" connect="1" arrows="1" fold="1" page="1" pageScale="1" pageWidth="850" pageHeight="1100" math="0" shadow="0">
            <root>
                <mxCell id="0"/>
                <mxCell id="1" parent="0"/>
                <mxCell id="2" value="" style="verticalLabelPosition=bottom;verticalAlign=top;html=1;shadow=0;dashed=0;strokeWidth=1;shape=mxgraph.android.phone2;strokeColor=#c0c0c0;" parent="1" vertex="1">
                    <mxGeometry x="170" y="20" width="500" height="1000" as="geometry"/>
                </mxCell>
                <mxCell id="74" value="" style="rounded=0;whiteSpace=wrap;html=1;shadow=1;fillColor=#f5f5f5;fontColor=#333333;strokeColor=#666666;" vertex="1" parent="1">
                    <mxGeometry x="190" y="110" width="460" height="820" as="geometry"/>
                </mxCell>
                <mxCell id="75" value="" style="group" vertex="1" connectable="0" parent="1">
                    <mxGeometry x="190" y="110" width="780" height="180" as="geometry"/>
                </mxCell>
                <mxCell id="76" value="" style="rounded=0;whiteSpace=wrap;html=1;shadow=1;fillColor=#1ba1e2;fontColor=#ffffff;strokeColor=#006EAF;" vertex="1" parent="75">
                    <mxGeometry width="460" height="60" as="geometry"/>
                </mxCell>
                <mxCell id="77" value="&lt;font style=&quot;font-size: 21px;&quot;&gt;&lt;b&gt;Medan (MDN) - Kisaran (KSR)&lt;/b&gt;&lt;/font&gt;" style="text;strokeColor=none;align=left;fillColor=none;html=1;verticalAlign=middle;whiteSpace=wrap;rounded=0;shadow=1;" vertex="1" parent="75">
                    <mxGeometry x="10" width="430" height="30" as="geometry"/>
                </mxCell>
                <mxCell id="78" value="&lt;font size=&quot;1&quot; style=&quot;&quot;&gt;&lt;span style=&quot;font-size: 16px;&quot;&gt;Rabu 10 Mei 2023&lt;/span&gt;&lt;/font&gt;" style="text;strokeColor=none;align=left;fillColor=none;html=1;verticalAlign=middle;whiteSpace=wrap;rounded=0;shadow=1;" vertex="1" parent="75">
                    <mxGeometry x="10" y="30" width="430" height="30" as="geometry"/>
                </mxCell>
                <mxCell id="79" value="" style="rounded=0;whiteSpace=wrap;html=1;shadow=1;fillColor=#f5f5f5;fontColor=#333333;strokeColor=#666666;" vertex="1" parent="75">
                    <mxGeometry y="55" width="460" height="70" as="geometry"/>
                </mxCell>
                <mxCell id="80" value="" style="group" vertex="1" connectable="0" parent="1">
                    <mxGeometry x="205" y="165" width="430" height="70" as="geometry"/>
                </mxCell>
                <mxCell id="81" value="" style="group" vertex="1" connectable="0" parent="80">
                    <mxGeometry width="70" height="70" as="geometry"/>
                </mxCell>
                <mxCell id="82" value="" style="whiteSpace=wrap;html=1;aspect=fixed;shadow=1;fontSize=16;fillColor=none;" vertex="1" parent="81">
                    <mxGeometry width="70" height="70" as="geometry"/>
                </mxCell>
                <mxCell id="83" value="&lt;b&gt;&lt;font color=&quot;#100e0e&quot;&gt;Rabu&lt;br&gt;10&lt;/font&gt;&lt;br&gt;&lt;/b&gt;" style="text;align=center;html=1;verticalAlign=middle;whiteSpace=wrap;rounded=0;shadow=1;fontSize=16;" vertex="1" parent="81">
                    <mxGeometry x="5" y="5" width="60" height="60" as="geometry"/>
                </mxCell>
                <mxCell id="84" value="" style="group" vertex="1" connectable="0" parent="80">
                    <mxGeometry x="70" width="70" height="70" as="geometry"/>
                </mxCell>
                <mxCell id="85" value="" style="whiteSpace=wrap;html=1;aspect=fixed;shadow=1;fontSize=16;fillColor=none;" vertex="1" parent="84">
                    <mxGeometry width="70" height="70" as="geometry"/>
                </mxCell>
                <mxCell id="86" value="&lt;b&gt;&lt;font color=&quot;#100e0e&quot;&gt;Kamis&lt;br&gt;11&lt;/font&gt;&lt;br&gt;&lt;/b&gt;" style="text;align=center;html=1;verticalAlign=middle;whiteSpace=wrap;rounded=0;shadow=1;fontSize=16;" vertex="1" parent="84">
                    <mxGeometry x="5" y="5" width="60" height="60" as="geometry"/>
                </mxCell>
                <mxCell id="87" value="" style="group" vertex="1" connectable="0" parent="80">
                    <mxGeometry x="140" width="70" height="70" as="geometry"/>
                </mxCell>
                <mxCell id="88" value="" style="whiteSpace=wrap;html=1;aspect=fixed;shadow=1;fontSize=16;fillColor=none;" vertex="1" parent="87">
                    <mxGeometry width="70" height="70" as="geometry"/>
                </mxCell>
                <mxCell id="89" value="&lt;b&gt;&lt;font color=&quot;#100e0e&quot;&gt;Jumat&lt;br&gt;11&lt;/font&gt;&lt;br&gt;&lt;/b&gt;" style="text;align=center;html=1;verticalAlign=middle;whiteSpace=wrap;rounded=0;shadow=1;fontSize=16;" vertex="1" parent="87">
                    <mxGeometry x="5" y="5" width="60" height="60" as="geometry"/>
                </mxCell>
                <mxCell id="90" value="" style="group" vertex="1" connectable="0" parent="80">
                    <mxGeometry x="210" width="70" height="70" as="geometry"/>
                </mxCell>
                <mxCell id="91" value="" style="whiteSpace=wrap;html=1;aspect=fixed;shadow=1;fontSize=16;fillColor=none;" vertex="1" parent="90">
                    <mxGeometry width="70" height="70" as="geometry"/>
                </mxCell>
                <mxCell id="92" value="&lt;b&gt;&lt;font color=&quot;#100e0e&quot;&gt;Sabtu&lt;br&gt;13&lt;/font&gt;&lt;br&gt;&lt;/b&gt;" style="text;align=center;html=1;verticalAlign=middle;whiteSpace=wrap;rounded=0;shadow=1;fontSize=16;" vertex="1" parent="90">
                    <mxGeometry x="5" y="5" width="60" height="60" as="geometry"/>
                </mxCell>
                <mxCell id="93" value="" style="group" vertex="1" connectable="0" parent="80">
                    <mxGeometry x="280" width="70" height="70" as="geometry"/>
                </mxCell>
                <mxCell id="94" value="" style="whiteSpace=wrap;html=1;aspect=fixed;shadow=1;fontSize=16;fillColor=none;" vertex="1" parent="93">
                    <mxGeometry width="70" height="70" as="geometry"/>
                </mxCell>
                <mxCell id="95" value="&lt;b&gt;&lt;font color=&quot;#100e0e&quot;&gt;Minggu&lt;br&gt;14&lt;/font&gt;&lt;br&gt;&lt;/b&gt;" style="text;align=center;html=1;verticalAlign=middle;whiteSpace=wrap;rounded=0;shadow=1;fontSize=16;" vertex="1" parent="93">
                    <mxGeometry x="5" y="5" width="60" height="60" as="geometry"/>
                </mxCell>
                <mxCell id="96" value="" style="group" vertex="1" connectable="0" parent="80">
                    <mxGeometry x="350" width="80" height="70" as="geometry"/>
                </mxCell>
                <mxCell id="97" value="" style="whiteSpace=wrap;html=1;aspect=fixed;shadow=1;fontSize=16;fillColor=none;" vertex="1" parent="96">
                    <mxGeometry width="70" height="70" as="geometry"/>
                </mxCell>
                <mxCell id="98" value="&lt;b&gt;&lt;font color=&quot;#100e0e&quot;&gt;Senin&lt;br&gt;15&lt;/font&gt;&lt;br&gt;&lt;/b&gt;" style="text;align=center;html=1;verticalAlign=middle;whiteSpace=wrap;rounded=0;shadow=1;fontSize=16;" vertex="1" parent="96">
                    <mxGeometry x="5.7142857142857135" y="5" width="68.57142857142857" height="60" as="geometry"/>
                </mxCell>
                <mxCell id="99" value="" style="group" vertex="1" connectable="0" parent="1">
                    <mxGeometry x="190" y="270" width="460" height="280" as="geometry"/>
                </mxCell>
                <mxCell id="100" value="" style="rounded=1;whiteSpace=wrap;html=1;fillColor=#f5f5f5;fontColor=#333333;strokeColor=#666666;" vertex="1" parent="99">
                    <mxGeometry width="460" height="280" as="geometry"/>
                </mxCell>
                <mxCell id="101" value="&lt;font color=&quot;#007fff&quot; style=&quot;font-size: 28px;&quot;&gt;&lt;b&gt;Medan Ekonomi&lt;/b&gt;&lt;/font&gt;" style="text;align=left;html=1;verticalAlign=middle;whiteSpace=wrap;rounded=0;fillColor=none;gradientColor=none;fontColor=#000000;" vertex="1" parent="99">
                    <mxGeometry x="5" y="100" width="230" height="30" as="geometry"/>
                </mxCell>
                <mxCell id="102" value="&lt;font color=&quot;#666666&quot; style=&quot;font-size: 16px;&quot;&gt;Ekonomi (A)&lt;/font&gt;" style="text;align=center;html=1;verticalAlign=middle;whiteSpace=wrap;rounded=0;fillColor=none;gradientColor=none;fontColor=#000000;" vertex="1" parent="99">
                    <mxGeometry x="10" y="140" width="100" height="30" as="geometry"/>
                </mxCell>
                <mxCell id="103" value="&lt;span style=&quot;font-size: 16px;&quot;&gt;&lt;b&gt;&lt;font color=&quot;#666666&quot;&gt;MEDAN (MDN&lt;/font&gt;&lt;/b&gt;&lt;/span&gt;" style="text;align=center;html=1;verticalAlign=middle;whiteSpace=wrap;rounded=0;fillColor=none;gradientColor=none;fontColor=#000000;" vertex="1" parent="99">
                    <mxGeometry x="10" y="170" width="110" height="30" as="geometry"/>
                </mxCell>
                <mxCell id="104" value="&lt;span style=&quot;font-size: 16px;&quot;&gt;&lt;font color=&quot;#666666&quot;&gt;10 Mei 2023&lt;/font&gt;&lt;/span&gt;" style="text;align=center;html=1;verticalAlign=middle;whiteSpace=wrap;rounded=0;fillColor=none;gradientColor=none;fontColor=#000000;" vertex="1" parent="99">
                    <mxGeometry x="10" y="225" width="100" height="30" as="geometry"/>
                </mxCell>
                <mxCell id="105" value="&lt;span&gt;&lt;font style=&quot;font-size: 26px;&quot; face=&quot;Times New Roman&quot;&gt;BELAWAN RAIL&lt;/font&gt;&lt;/span&gt;" style="text;strokeColor=none;align=center;fillColor=none;html=1;verticalAlign=middle;whiteSpace=wrap;rounded=0;fontSize=16;fontColor=#0000FF;fontStyle=1" vertex="1" parent="99">
                    <mxGeometry y="20" width="190" height="60" as="geometry"/>
                </mxCell>
                <mxCell id="106" value="&lt;span style=&quot;font-size: 16px;&quot;&gt;&lt;font style=&quot;&quot; color=&quot;#007fff&quot;&gt;&lt;b&gt;07:00&lt;/b&gt;&lt;/font&gt;&lt;/span&gt;" style="text;align=center;html=1;verticalAlign=middle;whiteSpace=wrap;rounded=0;fillColor=none;gradientColor=none;fontColor=#000000;" vertex="1" parent="99">
                    <mxGeometry x="10" y="200" width="110" height="30" as="geometry"/>
                </mxCell>
                <mxCell id="107" value="&lt;font color=&quot;#007fff&quot;&gt;&lt;span style=&quot;font-size: 28px;&quot;&gt;&lt;b&gt;Rp 50,000&lt;/b&gt;&lt;/span&gt;&lt;/font&gt;" style="text;align=center;html=1;verticalAlign=middle;whiteSpace=wrap;rounded=0;fillColor=none;gradientColor=none;fontColor=#000000;" vertex="1" parent="99">
                    <mxGeometry x="320" y="100" width="140" height="30" as="geometry"/>
                </mxCell>
                <mxCell id="108" value="&lt;font color=&quot;#00cc00&quot; style=&quot;font-size: 16px;&quot;&gt;Tersedia&lt;/font&gt;" style="text;align=center;html=1;verticalAlign=middle;whiteSpace=wrap;rounded=0;fillColor=none;gradientColor=none;fontColor=#000000;" vertex="1" parent="99">
                    <mxGeometry x="360" y="125" width="100" height="30" as="geometry"/>
                </mxCell>
                <mxCell id="109" value="&lt;span style=&quot;font-size: 16px;&quot;&gt;&lt;b&gt;&lt;font color=&quot;#666666&quot;&gt;KISARAN (KSR)&lt;/font&gt;&lt;/b&gt;&lt;/span&gt;" style="text;align=center;html=1;verticalAlign=middle;whiteSpace=wrap;rounded=0;fillColor=none;gradientColor=none;fontColor=#000000;" vertex="1" parent="99">
                    <mxGeometry x="320" y="155" width="130" height="30" as="geometry"/>
                </mxCell>
                <mxCell id="110" value="&lt;span style=&quot;font-size: 16px;&quot;&gt;&lt;font style=&quot;&quot; color=&quot;#007fff&quot;&gt;&lt;b&gt;10:00&lt;/b&gt;&lt;/font&gt;&lt;/span&gt;" style="text;align=center;html=1;verticalAlign=middle;whiteSpace=wrap;rounded=0;fillColor=none;gradientColor=none;fontColor=#000000;" vertex="1" parent="99">
                    <mxGeometry x="330" y="185" width="110" height="30" as="geometry"/>
                </mxCell>
                <mxCell id="111" value="&lt;span style=&quot;font-size: 16px;&quot;&gt;&lt;font color=&quot;#666666&quot;&gt;10 Mei 2023&lt;/font&gt;&lt;/span&gt;" style="text;align=center;html=1;verticalAlign=middle;whiteSpace=wrap;rounded=0;fillColor=none;gradientColor=none;fontColor=#000000;" vertex="1" parent="99">
                    <mxGeometry x="330" y="225" width="100" height="30" as="geometry"/>
                </mxCell>
                <mxCell id="112" value="&lt;span style=&quot;font-size: 16px;&quot;&gt;&lt;font color=&quot;#666666&quot;&gt;Durasi 3 Jam&lt;/font&gt;&lt;/span&gt;" style="text;align=center;html=1;verticalAlign=middle;whiteSpace=wrap;rounded=0;fillColor=none;gradientColor=none;fontColor=#000000;" vertex="1" parent="99">
                    <mxGeometry x="175" y="225" width="100" height="30" as="geometry"/>
                </mxCell>
                <mxCell id="113" value="&lt;span style=&quot;font-size: 16px;&quot;&gt;&lt;font color=&quot;#666666&quot;&gt;&amp;gt;&lt;/font&gt;&lt;/span&gt;" style="text;align=center;html=1;verticalAlign=middle;whiteSpace=wrap;rounded=0;fillColor=none;gradientColor=none;fontColor=#000000;" vertex="1" parent="99">
                    <mxGeometry x="175" y="195" width="100" height="30" as="geometry"/>
                </mxCell>
                <mxCell id="115" value="" style="group" vertex="1" connectable="0" parent="1">
                    <mxGeometry x="190" y="600" width="460" height="280" as="geometry"/>
                </mxCell>
                <mxCell id="116" value="" style="rounded=1;whiteSpace=wrap;html=1;fillColor=#f5f5f5;fontColor=#333333;strokeColor=#666666;" vertex="1" parent="115">
                    <mxGeometry width="460" height="280" as="geometry"/>
                </mxCell>
                <mxCell id="117" value="&lt;font color=&quot;#007fff&quot;&gt;&lt;span style=&quot;font-size: 28px;&quot;&gt;&lt;b&gt;Vip Pass&lt;/b&gt;&lt;/span&gt;&lt;/font&gt;" style="text;align=left;html=1;verticalAlign=middle;whiteSpace=wrap;rounded=0;fillColor=none;gradientColor=none;fontColor=#000000;" vertex="1" parent="115">
                    <mxGeometry x="5" y="100" width="230" height="30" as="geometry"/>
                </mxCell>
                <mxCell id="118" value="&lt;font color=&quot;#666666&quot; style=&quot;font-size: 16px;&quot;&gt;VIP&lt;/font&gt;" style="text;align=center;html=1;verticalAlign=middle;whiteSpace=wrap;rounded=0;fillColor=none;gradientColor=none;fontColor=#000000;" vertex="1" parent="115">
                    <mxGeometry x="10" y="140" width="100" height="30" as="geometry"/>
                </mxCell>
                <mxCell id="119" value="&lt;span style=&quot;font-size: 16px;&quot;&gt;&lt;b&gt;&lt;font color=&quot;#666666&quot;&gt;MEDAN (MDN&lt;/font&gt;&lt;/b&gt;&lt;/span&gt;" style="text;align=center;html=1;verticalAlign=middle;whiteSpace=wrap;rounded=0;fillColor=none;gradientColor=none;fontColor=#000000;" vertex="1" parent="115">
                    <mxGeometry x="10" y="170" width="110" height="30" as="geometry"/>
                </mxCell>
                <mxCell id="120" value="&lt;span style=&quot;font-size: 16px;&quot;&gt;&lt;font color=&quot;#666666&quot;&gt;10 Mei 2023&lt;/font&gt;&lt;/span&gt;" style="text;align=center;html=1;verticalAlign=middle;whiteSpace=wrap;rounded=0;fillColor=none;gradientColor=none;fontColor=#000000;" vertex="1" parent="115">
                    <mxGeometry x="10" y="225" width="100" height="30" as="geometry"/>
                </mxCell>
                <mxCell id="121" value="&lt;span&gt;&lt;font style=&quot;font-size: 26px;&quot; face=&quot;Times New Roman&quot;&gt;BELAWAN RAIL&lt;/font&gt;&lt;/span&gt;" style="text;strokeColor=none;align=center;fillColor=none;html=1;verticalAlign=middle;whiteSpace=wrap;rounded=0;fontSize=16;fontColor=#0000FF;fontStyle=1" vertex="1" parent="115">
                    <mxGeometry y="20" width="190" height="60" as="geometry"/>
                </mxCell>
                <mxCell id="122" value="&lt;span style=&quot;font-size: 16px;&quot;&gt;&lt;font style=&quot;&quot; color=&quot;#007fff&quot;&gt;&lt;b&gt;12:00&lt;/b&gt;&lt;/font&gt;&lt;/span&gt;" style="text;align=center;html=1;verticalAlign=middle;whiteSpace=wrap;rounded=0;fillColor=none;gradientColor=none;fontColor=#000000;" vertex="1" parent="115">
                    <mxGeometry x="10" y="200" width="110" height="30" as="geometry"/>
                </mxCell>
                <mxCell id="123" value="&lt;font color=&quot;#007fff&quot;&gt;&lt;span style=&quot;font-size: 28px;&quot;&gt;&lt;b&gt;Rp 100,000&lt;/b&gt;&lt;/span&gt;&lt;/font&gt;" style="text;align=center;html=1;verticalAlign=middle;whiteSpace=wrap;rounded=0;fillColor=none;gradientColor=none;fontColor=#000000;" vertex="1" parent="115">
                    <mxGeometry x="310" y="100" width="150" height="30" as="geometry"/>
                </mxCell>
                <mxCell id="124" value="&lt;font color=&quot;#00cc00&quot; style=&quot;font-size: 16px;&quot;&gt;Tersedia&lt;/font&gt;" style="text;align=center;html=1;verticalAlign=middle;whiteSpace=wrap;rounded=0;fillColor=none;gradientColor=none;fontColor=#000000;" vertex="1" parent="115">
                    <mxGeometry x="360" y="125" width="100" height="30" as="geometry"/>
                </mxCell>
                <mxCell id="125" value="&lt;span style=&quot;font-size: 16px;&quot;&gt;&lt;b&gt;&lt;font color=&quot;#666666&quot;&gt;KISARAN (KSR)&lt;/font&gt;&lt;/b&gt;&lt;/span&gt;" style="text;align=center;html=1;verticalAlign=middle;whiteSpace=wrap;rounded=0;fillColor=none;gradientColor=none;fontColor=#000000;" vertex="1" parent="115">
                    <mxGeometry x="320" y="155" width="130" height="30" as="geometry"/>
                </mxCell>
                <mxCell id="126" value="&lt;span style=&quot;font-size: 16px;&quot;&gt;&lt;font style=&quot;&quot; color=&quot;#007fff&quot;&gt;&lt;b&gt;15:00&lt;/b&gt;&lt;/font&gt;&lt;/span&gt;" style="text;align=center;html=1;verticalAlign=middle;whiteSpace=wrap;rounded=0;fillColor=none;gradientColor=none;fontColor=#000000;" vertex="1" parent="115">
                    <mxGeometry x="330" y="185" width="110" height="30" as="geometry"/>
                </mxCell>
                <mxCell id="127" value="&lt;span style=&quot;font-size: 16px;&quot;&gt;&lt;font color=&quot;#666666&quot;&gt;10 Mei 2023&lt;/font&gt;&lt;/span&gt;" style="text;align=center;html=1;verticalAlign=middle;whiteSpace=wrap;rounded=0;fillColor=none;gradientColor=none;fontColor=#000000;" vertex="1" parent="115">
                    <mxGeometry x="330" y="225" width="100" height="30" as="geometry"/>
                </mxCell>
                <mxCell id="128" value="&lt;span style=&quot;font-size: 16px;&quot;&gt;&lt;font color=&quot;#666666&quot;&gt;Durasi 3 Jam&lt;/font&gt;&lt;/span&gt;" style="text;align=center;html=1;verticalAlign=middle;whiteSpace=wrap;rounded=0;fillColor=none;gradientColor=none;fontColor=#000000;" vertex="1" parent="115">
                    <mxGeometry x="175" y="225" width="100" height="30" as="geometry"/>
                </mxCell>
                <mxCell id="129" value="&lt;span style=&quot;font-size: 16px;&quot;&gt;&lt;font color=&quot;#666666&quot;&gt;&amp;gt;&lt;/font&gt;&lt;/span&gt;" style="text;align=center;html=1;verticalAlign=middle;whiteSpace=wrap;rounded=0;fillColor=none;gradientColor=none;fontColor=#000000;" vertex="1" parent="115">
                    <mxGeometry x="175" y="195" width="100" height="30" as="geometry"/>
                </mxCell>
            </root>
        </mxGraphModel>
    </diagram>
</mxfile>